<?xml version="1.0" encoding="UTF-8"?>
<svg id="Layer_1" data-name="Layer 1" xmlns="http://www.w3.org/2000/svg" viewBox="0 0 1080 1080">
  <defs>
    <style>
      .cls-1 {
        fill: #4f76f6;
      }

      .cls-2 {
        fill: #15bab3;
      }

      .cls-3 {
        fill:#f4f4f9 ;
      }

      .cls-4 {
        fill: #77f2a1;
      }
    </style>
  </defs>
  <path class="cls-3" d="m924.05,415.68h-30.56v61.41c-20.79.05-41.4.02-62.14.01v-61.54c-10.49.09-20.86-.06-31.21.07-.12,2.73-.33,153.21.11,154.31h31.18v-61.2c1.93-.36,60.97-.31,62.14.06v61.18h30.6c.16-2.64.36-153.15-.11-154.29Z"/>
  <path class="cls-3" d="m552.3,539.07s-.02,0-.03,0c0,0,0,.02,0,.02,0,0,.01-.01.02-.02h0Z"/>
  <path class="cls-3" d="m552.15,509.6c0-10.84,0-21.67,0-32.51h-61.48v-30.6c.52-.03.96-.09,1.39-.09,12.66,0,25.32,0,37.98,0,7.03,0,14.07-.02,21.1-.04.33,0,.67-.04,1-.07,0-3.66-.03-7.31-.03-10.97,0-6.13.02-12.26.02-18.39,0-.43-.08-.85-.12-1.25h-92.73v154.37c10.47-.07,20.84.06,31.3-.07,0-10.42-.02-20.61,0-30.81.03-10.18-.07-20.35.04-30.57h30.68c.02,10.28-.02,20.44.03,30.62.57.03.92.06,1.27.06,9.45,0,18.9-.02,28.34-.04.43,0,.86-.11,1.3-.17-.05-.58-.15-1.17-.15-1.75,0-9.24.02-18.48.03-27.72Z"/>
  <path class="cls-3" d="m614.33,415.68v30.73h62.09v123.65c10.28-.09,20.45.06,30.73-.06.04-41.3-.02-82.38.03-123.64h61.92c.37-2.52.29-29.59-.07-30.67h-154.7Z"/>
  <path class="cls-3" d="m211.47,476.95s0,.02,0,.02l.03-.03s-.02,0-.03,0Z"/>
  <path class="cls-3" d="m211.35,448.21c0-.58-.05-1.16-.08-1.87h-30.74v-30.67h-31.28v154.38c10.45-.05,20.81.06,31.29-.05.06-31.04-.02-61.86.04-92.83.75,0,1.29,0,1.84,0,9.1-.01,18.19-.02,27.29-.04.58,0,1.17-.11,1.75-.17-.05-.58-.15-1.17-.15-1.75,0-9,.02-17.99.03-26.99Z"/>
  <path class="cls-3" d="m242.62,477.09c-.71,0-1.25,0-1.79,0-3.22,0-6.43,0-9.65,0-6.23,0-12.46.02-18.69.02-.33,0-.67-.09-1-.15-.06.48-.17.97-.17,1.45-.02,9.5-.03,18.99-.04,28.49,0,.49.05.98.09,1.63h31.29c.01,20.59-.01,41,.01,61.41h30.71v-154.26h-30.76v61.4Z"/>
  <path class="cls-3" d="m211.47,476.97s.01,0,.02,0c0-.01,0-.02,0-.03,0,0-.03.03-.03.03Z"/>
  <path class="cls-3" d="m335.59,500.67c0-6.48,0-12.95,0-19.43,0-5.97,0-11.95.01-17.92,0-5.66,0-11.33,0-16.99-10.42.01-20.84.03-31.34.04v92.85c.48.03.87.07,1.26.07,8.29,0,16.58,0,24.86,0,1.74,0,3.47-.07,5.21-.11,0-6.36-.02-12.72-.02-19.07,0-6.48,0-12.95,0-19.43Z"/>
  <path class="cls-2" d="m211.02,531.43c0-6.48,0-12.95,0-19.43,0-5.97,0-11.95.01-17.92,0-5.66,0-11.33,0-16.99-10.42.01-20.84.03-31.34.04v92.85c.48.03.87.07,1.26.07,8.29,0,16.58,0,24.86,0,1.74,0,3.47-.07,5.21-.11,0-6.36-.02-12.72-.02-19.07,0-6.48,0-12.95,0-19.43Z"/>
  <path class="cls-1" d="m366.64,500.67c0-6.48,0-12.95,0-19.43,0-5.97,0-11.95.01-17.92,0-5.66,0-11.33,0-16.99-10.42.01-20.84.03-31.34.04v92.85c.48.03.87.07,1.26.07,8.29,0,16.58,0,24.86,0,1.74,0,3.47-.07,5.21-.11,0-6.36-.02-12.72-.02-19.07,0-6.48,0-12.95,0-19.43Z"/>
  <path class="cls-3" d="m409.2,446.35c-4.01,0-8.01,0-12.02-.02-.04,1.59-.11,3.18-.11,4.77,0,11.6.03,23.2.03,34.8,0,9.04-.02,18.08-.03,27.12,0,8.34,0,16.67,0,25.01,0,.39.06.78.09,1.17.54.03,1.08.1,1.62.1,7.94,0,15.88,0,23.81,0h5.79v-92.86c-.43-.04-.77-.1-1.11-.1-6.03,0-12.06.01-18.09.01Z"/>
  <path class="cls-2" d="m719.06,446.27c-4.01,0-8.01-.01-12.02-.02-.04,2.12-.11,4.23-.11,6.35,0,15.44.03,30.88.03,46.32,0,12.03-.02,24.06-.03,36.09,0,11.09,0,22.19,0,33.28,0,.52.06,1.03.09,1.55.54.05,1.08.13,1.62.13,7.94,0,15.88,0,23.81,0h5.79v-123.58c-.43-.05-.77-.13-1.11-.13-6.03,0-12.06.02-18.09.02Z"/>
  <path class="cls-1" d="m842.71,508.46c-4.01,0-8.01,0-12.02-.01-.04,1.05-.11,2.1-.11,3.16,0,7.68.03,15.36.03,23.03,0,5.98-.02,11.96-.03,17.95,0,5.52,0,11.03,0,16.55,0,.26.06.51.09.77.54.02,1.08.06,1.62.06,7.94,0,15.88,0,23.81,0h5.79v-61.46c-.43-.03-.77-.07-1.11-.07-6.03,0-12.06,0-18.09,0Z"/>
  <path class="cls-3" d="m375.35,446.4c6.88,0,13.75-.02,20.63-.04.39,0,.77-.05,1.16-.07-.01-.84-.04-1.68-.04-2.52,0-8.79.02-17.58.03-26.37,0-.58-.05-1.16-.08-1.72h-61.48c0,.64,0,1.19,0,1.73-.01,8.99-.03,17.98-.03,26.98,0,.64.06,1.28.1,1.92.74.03,1.48.1,2.22.1,12.5,0,24.99,0,37.49,0Z"/>
  <path class="cls-3" d="m335.65,539.23c-.03.23-.07.46-.07.69-.02,9.69-.03,19.38-.03,29.08,0,.33.1.66.15.96,3.5.33,60.24.14,61.44-.24v-30.49c-12.28.01-24.57.03-36.85.03-8.21,0-16.42-.02-24.63-.03Z"/>
  <path class="cls-2" d="m552.09,475.9c0,.39.06.77.09,1.16.49.04.98.1,1.47.1,2.06,0,4.12-.02,6.18-.02,7.53,0,15.07,0,22.6-.02.33,0,.65-.1.98-.16v-30.53c-.44-.04-.78-.1-1.12-.1-6.03,0-12.05.01-18.08.01-4,0-8.01-.02-12.01-.02-.04,1.49-.1,2.98-.11,4.47-.01,8.37,0,16.74,0,25.11Z"/>
  <path class="cls-3" d="m552.3,539.08l-.02.02s.01,0,.02,0c0,0,0-.02,0-.03,0,0,0,0,0,0Z"/>
  <path class="cls-3" d="m552.28,539.1l.02-.02s-.02.02-.02.02Z"/>
  <path class="cls-3" d="m552.16,477.09h.03s-.03-.03-.03-.03v.03Z"/>
  <path class="cls-3" d="m552.2,446.29s-.03,0-.05,0c0,.01,0,.02,0,.03l.05-.04Z"/>
  <path class="cls-3" d="m552.19,477.09s0-.02,0-.03c0,0-.02,0-.02,0l.03.03Z"/>
  <path class="cls-3" d="m552.2,446.33s0-.02,0-.04l-.05.04h.04Z"/>
  <polygon class="cls-3" points="552.16 477.06 552.16 477.06 552.19 477.09 552.16 477.06 552.16 477.06"/>
  <path class="cls-3" d="m335.6,539.17v.05l.06-.06s-.04,0-.06,0Z"/>
  <path class="cls-3" d="m335.61,446.3v.03h.03l-.03-.03Z"/>
  <path class="cls-3" d="m397.17,539.22s0-.02,0-.03c0,0-.02,0-.03,0l.03.03Z"/>
  <path class="cls-3" d="m397.14,446.33h.04s0-.03,0-.05c0,0,0,.01-.02.02,0,.01-.02.02-.02.02Z"/>
  <path class="cls-3" d="m397.16,446.31s.02-.02.02-.02c-.01,0-.03,0-.04,0,0,.01,0,.03,0,.04,0,0,0-.01.02-.02Z"/>
  <path class="cls-3" d="m335.64,446.3s-.02,0-.03,0l.03.03s0-.02,0-.03Z"/>
  <path class="cls-3" d="m335.6,539.23s.03,0,.05,0c0-.02,0-.04,0-.06l-.06.06Z"/>
  <path class="cls-3" d="m397.14,539.22h.03l-.03-.03v.03Z"/>
  <g>
    <path class="cls-3" d="m170.76,711.52c-3.38,0-6.03-.92-7.96-2.77-1.93-1.85-2.89-4.89-2.89-9.13v-43.14h-9.55c-.55,0-.83-.2-.83-.59v-.35l10.37-.24.47-23.22c0-.2.05-.38.15-.56.1-.18.24-.27.44-.27h.35v24.04h19.68v1.18h-19.68v43.14c0,1.96.24,3.62.74,4.98.49,1.36,1.17,2.46,2.03,3.3.86.85,1.87,1.46,3.01,1.86,1.14.39,2.36.59,3.65.59,1.65,0,3.09-.26,4.33-.77,1.24-.51,2.29-1.06,3.15-1.65.86-.59,1.56-1.14,2.09-1.65.53-.51.91-.77,1.15-.77.16,0,.31.08.47.24l.24.24c-.59.79-1.31,1.52-2.15,2.21-.85.69-1.77,1.28-2.77,1.77-1,.49-2.06.87-3.18,1.15-1.12.27-2.23.41-3.33.41Z"/>
    <path class="cls-3" d="m217.55,651.88c3.02,0,5.85.54,8.49,1.62,2.63,1.08,4.92,2.68,6.87,4.8,1.94,2.12,3.47,4.72,4.57,7.81,1.1,3.08,1.65,6.63,1.65,10.64,0,.2-.07.34-.21.44-.14.1-.3.15-.5.15h-44.55c-.08.55-.12,1.08-.12,1.59v1.59c0,4.79.57,9.03,1.71,12.7,1.14,3.67,2.76,6.76,4.86,9.25,2.1,2.5,4.64,4.39,7.6,5.69,2.97,1.3,6.26,1.94,9.87,1.94,3.26,0,6.06-.35,8.4-1.06,2.34-.71,4.28-1.49,5.83-2.36,1.55-.86,2.73-1.65,3.54-2.36.81-.71,1.33-1.06,1.56-1.06.16,0,.31.08.47.24l.24.24c-.67.83-1.66,1.68-2.98,2.56-1.32.88-2.87,1.7-4.66,2.45-1.79.75-3.74,1.36-5.86,1.83-2.12.47-4.3.71-6.54.71-3.97,0-7.52-.7-10.67-2.09-3.14-1.39-5.8-3.41-7.99-6.04-2.18-2.63-3.86-5.85-5.04-9.67-1.18-3.81-1.77-8.13-1.77-12.97,0-4.24.57-8.12,1.71-11.64,1.14-3.52,2.79-6.53,4.95-9.05,2.16-2.51,4.8-4.47,7.93-5.86,3.12-1.39,6.67-2.09,10.64-2.09Zm0,1.18c-3.46,0-6.57.56-9.34,1.68-2.77,1.12-5.16,2.69-7.16,4.71-2,2.02-3.6,4.47-4.8,7.34-1.2,2.87-1.97,6.03-2.33,9.49h43.91c0-3.73-.51-7.04-1.53-9.93-1.02-2.89-2.45-5.31-4.27-7.28-1.83-1.96-3.98-3.46-6.45-4.48-2.48-1.02-5.15-1.53-8.02-1.53Z"/>
    <path class="cls-3" d="m292.51,658.24c-.16.16-.31.24-.47.24-.24,0-.68-.28-1.33-.85-.65-.57-1.59-1.19-2.83-1.86-1.24-.67-2.79-1.29-4.66-1.86-1.87-.57-4.12-.85-6.75-.85-3.73,0-7.07.67-10.02,2-2.95,1.34-5.44,3.24-7.48,5.72-2.04,2.48-3.6,5.48-4.68,9.02-1.08,3.54-1.62,7.5-1.62,11.9s.54,8.6,1.62,12.11c1.08,3.52,2.62,6.48,4.63,8.9,2,2.42,4.41,4.25,7.22,5.51,2.81,1.26,5.94,1.89,9.4,1.89,3.06,0,5.66-.35,7.78-1.06,2.12-.71,3.87-1.49,5.24-2.36,1.37-.86,2.42-1.65,3.12-2.36.71-.71,1.18-1.06,1.41-1.06.16,0,.31.08.47.24l.24.24c-.59.86-1.45,1.74-2.59,2.62-1.14.88-2.5,1.69-4.07,2.42-1.57.73-3.34,1.33-5.3,1.8-1.97.47-4.07.71-6.31.71-3.73,0-7.09-.67-10.08-2-2.99-1.34-5.53-3.27-7.63-5.8-2.1-2.53-3.72-5.63-4.86-9.28-1.14-3.65-1.71-7.82-1.71-12.49s.57-8.55,1.71-12.23c1.14-3.67,2.79-6.81,4.95-9.4,2.16-2.59,4.8-4.61,7.93-6.04,3.12-1.43,6.67-2.15,10.64-2.15,3.5,0,6.61.56,9.34,1.68,2.73,1.12,5.08,2.56,7.04,4.33l-.35.35Z"/>
    <path class="cls-3" d="m308.19,710.57v-84.86h1.41v39.13c1.34-1.96,2.84-3.74,4.51-5.33,1.67-1.59,3.47-2.96,5.39-4.1,1.92-1.14,3.95-2.01,6.07-2.62,2.12-.61,4.3-.91,6.54-.91,6.4,0,11.19,1.91,14.35,5.72,3.16,3.81,4.74,9.13,4.74,15.97v37.01h-1.41v-37.01c0-3.22-.35-6.1-1.06-8.63-.71-2.53-1.8-4.69-3.27-6.45-1.47-1.77-3.32-3.11-5.54-4.04-2.22-.92-4.82-1.38-7.81-1.38-4.52,0-8.68,1.21-12.49,3.62-3.81,2.42-7.15,5.75-10.02,9.99v43.91h-1.41Z"/>
    <path class="cls-3" d="m429.94,658.24c-.16.16-.31.24-.47.24-.24,0-.68-.28-1.33-.85-.65-.57-1.59-1.19-2.83-1.86-1.24-.67-2.79-1.29-4.66-1.86-1.87-.57-4.12-.85-6.75-.85-3.73,0-7.07.67-10.02,2-2.95,1.34-5.44,3.24-7.48,5.72-2.04,2.48-3.6,5.48-4.68,9.02-1.08,3.54-1.62,7.5-1.62,11.9s.54,8.6,1.62,12.11c1.08,3.52,2.62,6.48,4.63,8.9,2,2.42,4.41,4.25,7.22,5.51,2.81,1.26,5.94,1.89,9.4,1.89,3.06,0,5.66-.35,7.78-1.06,2.12-.71,3.87-1.49,5.24-2.36,1.37-.86,2.42-1.65,3.12-2.36.71-.71,1.18-1.06,1.41-1.06.16,0,.31.08.47.24l.24.24c-.59.86-1.45,1.74-2.59,2.62-1.14.88-2.5,1.69-4.07,2.42-1.57.73-3.34,1.33-5.3,1.8-1.97.47-4.07.71-6.31.71-3.73,0-7.09-.67-10.08-2-2.99-1.34-5.53-3.27-7.63-5.8-2.1-2.53-3.72-5.63-4.86-9.28-1.14-3.65-1.71-7.82-1.71-12.49s.57-8.55,1.71-12.23c1.14-3.67,2.79-6.81,4.95-9.4,2.16-2.59,4.8-4.61,7.93-6.04,3.12-1.43,6.67-2.15,10.64-2.15,3.5,0,6.61.56,9.34,1.68,2.73,1.12,5.08,2.56,7.04,4.33l-.35.35Z"/>
    <path class="cls-3" d="m466.37,651.88c4.05,0,7.64.72,10.78,2.15,3.14,1.43,5.79,3.45,7.93,6.04,2.14,2.59,3.76,5.73,4.86,9.4,1.1,3.67,1.65,7.75,1.65,12.23s-.55,8.54-1.65,12.17c-1.1,3.63-2.72,6.75-4.86,9.34-2.14,2.59-4.78,4.59-7.93,5.98-3.14,1.39-6.74,2.09-10.78,2.09s-7.69-.7-10.81-2.09c-3.12-1.39-5.76-3.39-7.9-5.98-2.14-2.59-3.76-5.71-4.86-9.34-1.1-3.63-1.65-7.69-1.65-12.17s.55-8.55,1.65-12.23c1.1-3.67,2.72-6.81,4.86-9.4,2.14-2.59,4.77-4.61,7.9-6.04,3.12-1.43,6.73-2.15,10.81-2.15Zm0,58.23c3.93,0,7.39-.69,10.37-2.06,2.99-1.37,5.47-3.3,7.46-5.78,1.98-2.48,3.48-5.46,4.48-8.96,1-3.5,1.5-7.37,1.5-11.61s-.5-8.12-1.5-11.64c-1-3.52-2.5-6.53-4.48-9.05-1.98-2.51-4.47-4.47-7.46-5.86-2.99-1.39-6.44-2.09-10.37-2.09s-7.44.7-10.4,2.09c-2.97,1.4-5.44,3.35-7.43,5.86-1.98,2.51-3.48,5.53-4.48,9.05-1,3.52-1.5,7.4-1.5,11.64s.5,8.11,1.5,11.61c1,3.5,2.49,6.48,4.48,8.96,1.98,2.48,4.46,4.4,7.43,5.78,2.97,1.38,6.43,2.06,10.4,2.06Z"/>
    <path class="cls-3" d="m507.85,710.57v-57.76h.35c.55,0,.82.31.82.94l.18,10.9c2.24-3.89,4.97-6.99,8.19-9.31,3.22-2.32,6.72-3.48,10.49-3.48,4.64,0,8.26,1.43,10.87,4.3,2.61,2.87,4.23,6.95,4.86,12.26.47-2.79,1.29-5.22,2.45-7.31,1.16-2.08,2.56-3.81,4.21-5.19,1.65-1.37,3.49-2.4,5.51-3.06,2.02-.67,4.12-1,6.28-1,2.71,0,5.17.47,7.37,1.41,2.2.94,4.07,2.33,5.6,4.15,1.53,1.83,2.72,4.1,3.57,6.81.84,2.71,1.27,5.82,1.27,9.31v37.01h-1.41v-37.01c0-6.64-1.42-11.72-4.27-15.23-2.85-3.52-6.89-5.27-12.11-5.27-2.32,0-4.55.43-6.69,1.3-2.14.86-4.04,2.15-5.69,3.86s-2.97,3.84-3.95,6.39c-.98,2.55-1.47,5.54-1.47,8.96v37.01h-1.41v-37.01c0-3.22-.32-6.1-.97-8.63s-1.61-4.69-2.89-6.45c-1.28-1.77-2.86-3.11-4.74-4.04-1.89-.92-4.05-1.38-6.48-1.38-3.73,0-7.16,1.19-10.28,3.57-3.12,2.38-5.86,5.67-8.22,9.87v44.08h-1.41Z"/>
    <path class="cls-3" d="m599.08,710.57v-57.76h.35c.55,0,.82.31.82.94l.18,10.9c2.24-3.89,4.97-6.99,8.19-9.31,3.22-2.32,6.72-3.48,10.49-3.48,4.64,0,8.26,1.43,10.87,4.3,2.61,2.87,4.23,6.95,4.86,12.26.47-2.79,1.29-5.22,2.45-7.31,1.16-2.08,2.56-3.81,4.21-5.19,1.65-1.37,3.49-2.4,5.51-3.06,2.02-.67,4.12-1,6.28-1,2.71,0,5.17.47,7.37,1.41,2.2.94,4.07,2.33,5.6,4.15,1.53,1.83,2.72,4.1,3.57,6.81.84,2.71,1.27,5.82,1.27,9.31v37.01h-1.41v-37.01c0-6.64-1.42-11.72-4.27-15.23-2.85-3.52-6.89-5.27-12.11-5.27-2.32,0-4.55.43-6.69,1.3-2.14.86-4.04,2.15-5.69,3.86s-2.97,3.84-3.95,6.39c-.98,2.55-1.47,5.54-1.47,8.96v37.01h-1.41v-37.01c0-3.22-.32-6.1-.97-8.63-.65-2.53-1.61-4.69-2.89-6.45-1.28-1.77-2.86-3.11-4.74-4.04-1.89-.92-4.05-1.38-6.48-1.38-3.73,0-7.16,1.19-10.28,3.57-3.12,2.38-5.86,5.67-8.22,9.87v44.08h-1.41Z"/>
    <path class="cls-3" d="m690.19,652.82v37.01c0,3.22.35,6.1,1.06,8.63.71,2.53,1.8,4.69,3.27,6.45s3.31,3.11,5.51,4.04c2.2.92,4.81,1.38,7.84,1.38,4.52,0,8.67-1.2,12.46-3.59,3.79-2.4,7.14-5.72,10.05-9.96v-43.96h1.41v57.76h-.35c-.55,0-.82-.31-.82-.94l-.24-11.08c-1.38,1.97-2.89,3.75-4.54,5.36-1.65,1.61-3.44,2.98-5.36,4.1-1.93,1.12-3.95,1.98-6.07,2.59-2.12.61-4.3.91-6.54.91-6.44,0-11.24-1.91-14.38-5.72-3.14-3.81-4.72-9.13-4.72-15.97v-37.01h1.41Z"/>
    <path class="cls-3" d="m752.55,710.57v-57.76h.35c.55,0,.82.31.82.94l.18,11.14c1.34-1.96,2.84-3.75,4.51-5.36,1.67-1.61,3.47-2.99,5.39-4.13,1.92-1.14,3.95-2.01,6.07-2.62,2.12-.61,4.32-.91,6.6-.91,6.4,0,11.19,1.91,14.35,5.72,3.16,3.81,4.74,9.13,4.74,15.97v37.01h-1.41v-37.01c0-3.22-.35-6.1-1.06-8.63s-1.8-4.69-3.27-6.45c-1.47-1.77-3.32-3.11-5.54-4.04-2.22-.92-4.82-1.38-7.81-1.38-4.52,0-8.68,1.21-12.49,3.62-3.81,2.42-7.15,5.75-10.02,9.99v43.91h-1.41Z"/>
    <path class="cls-3" d="m820.79,631.37c0,.83-.34,1.56-1.03,2.21-.69.65-1.44.97-2.27.97-.9,0-1.68-.32-2.33-.97-.65-.65-.97-1.38-.97-2.21,0-.9.32-1.68.97-2.33s1.42-.97,2.33-.97c.83,0,1.58.32,2.27.97.69.65,1.03,1.42,1.03,2.33Zm-2.59,21.45v57.76h-1.41v-57.76h1.41Z"/>
    <path class="cls-3" d="m855.21,711.52c-3.38,0-6.03-.92-7.96-2.77-1.93-1.85-2.89-4.89-2.89-9.13v-43.14h-9.55c-.55,0-.83-.2-.83-.59v-.35l10.37-.24.47-23.22c0-.2.05-.38.15-.56.1-.18.24-.27.44-.27h.35v24.04h19.68v1.18h-19.68v43.14c0,1.96.24,3.62.74,4.98.49,1.36,1.17,2.46,2.03,3.3.86.85,1.87,1.46,3.01,1.86,1.14.39,2.36.59,3.65.59,1.65,0,3.09-.26,4.33-.77,1.24-.51,2.29-1.06,3.15-1.65.86-.59,1.56-1.14,2.09-1.65.53-.51.91-.77,1.15-.77.16,0,.31.08.47.24l.24.24c-.59.79-1.31,1.52-2.15,2.21-.85.69-1.77,1.28-2.77,1.77-1,.49-2.06.87-3.18,1.15-1.12.27-2.23.41-3.33.41Z"/>
    <path class="cls-3" d="m889.98,730.49c-.12.31-.29.61-.53.88-.24.27-.53.41-.88.41h-.83l9.9-22.22-24.99-56.75h.83c.31,0,.57.09.77.27.2.18.33.36.41.56l22.98,52.45c.16.35.3.71.44,1.06.14.35.24.73.32,1.12.08-.39.19-.77.32-1.12.14-.35.28-.71.44-1.06l22.98-52.45c.27-.55.63-.83,1.06-.83h.82l-34.06,77.67Z"/>
  </g>
  <rect class="cls-4" x="551.87" y="539.21" width="30.76" height="30.76"/>
  <rect class="cls-4" x="924.04" y="384.79" width="30.76" height="30.76"/>
  <rect class="cls-4" x="924.04" y="569.97" width="30.76" height="30.76"/>
  <rect class="cls-4" x="118.78" y="384.79" width="30.76" height="30.76"/>
  <rect class="cls-4" x="118.78" y="569.97" width="30.76" height="30.76"/>
</svg>