<?xml version="1.0" encoding="UTF-8"?>
<svg id="Layer_1" data-name="Layer 1" xmlns="http://www.w3.org/2000/svg" viewBox="0 0 1080 1080">
  <defs>
    <style>
      .cls-1 {
        fill: #15bab3;
      }
    </style>
  </defs>
  <rect class="cls-1" x="835.35" y="757.55" width="51.24" height="51.24" transform="translate(1721.93 1566.34) rotate(180)"/>
  <rect class="cls-1" x="784.28" y="757.55" width="51.24" height="51.24" transform="translate(1619.79 1566.34) rotate(180)"/>
  <rect class="cls-1" x="784.28" y="706.96" width="51.24" height="51.24" transform="translate(1619.79 1465.16) rotate(180)"/>
  <rect class="cls-1" x="733.2" y="706.96" width="51.24" height="51.24" transform="translate(1517.64 1465.16) rotate(180)"/>
  <rect class="cls-1" x="733.2" y="655.89" width="51.24" height="51.24" transform="translate(1517.64 1363.02) rotate(180)"/>
  <rect class="cls-1" x="682.13" y="655.89" width="51.24" height="51.24" transform="translate(1415.5 1363.02) rotate(180)"/>
  <rect class="cls-1" x="682.13" y="604.82" width="51.24" height="51.24" transform="translate(1415.5 1260.87) rotate(180)"/>
  <rect class="cls-1" x="631.06" y="604.82" width="51.24" height="51.24" transform="translate(1313.35 1260.87) rotate(180)"/>
  <rect class="cls-1" x="528.91" y="604.82" width="51.24" height="51.24" transform="translate(1109.06 1260.87) rotate(180)"/>
  <rect class="cls-1" x="477.84" y="604.82" width="51.24" height="51.24" transform="translate(1006.91 1260.87) rotate(180)"/>
  <rect class="cls-1" x="426.77" y="604.82" width="51.24" height="51.24" transform="translate(904.77 1260.87) rotate(180)"/>
  <rect class="cls-1" x="375.69" y="604.82" width="51.24" height="51.24" transform="translate(802.62 1260.87) rotate(180)"/>
  <rect class="cls-1" x="528.91" y="247.79" width="51.24" height="51.24" transform="translate(1109.06 546.81) rotate(180)"/>
  <rect class="cls-1" x="477.84" y="247.79" width="51.24" height="51.24" transform="translate(1006.91 546.81) rotate(180)"/>
  <rect class="cls-1" x="426.77" y="247.79" width="51.24" height="51.24" transform="translate(904.77 546.81) rotate(180)"/>
  <rect class="cls-1" x="375.69" y="247.79" width="51.24" height="51.24" transform="translate(802.62 546.81) rotate(180)"/>
  <rect class="cls-1" x="273.55" y="349.94" width="51.24" height="51.24" transform="translate(674.72 76.39) rotate(90)"/>
  <rect class="cls-1" x="273.55" y="401.01" width="51.24" height="51.24" transform="translate(725.79 127.46) rotate(90)"/>
  <rect class="cls-1" x="273.55" y="452.08" width="51.24" height="51.24" transform="translate(776.86 178.53) rotate(90)"/>
  <rect class="cls-1" x="273.55" y="503.15" width="51.24" height="51.24" transform="translate(827.94 229.61) rotate(90)"/>
  <rect class="cls-1" x="631.06" y="349.94" width="51.24" height="51.24" transform="translate(1032.23 -281.12) rotate(90)"/>
  <rect class="cls-1" x="631.06" y="401.01" width="51.24" height="51.24" transform="translate(1083.3 -230.05) rotate(90)"/>
  <rect class="cls-1" x="631.06" y="452.08" width="51.24" height="51.24" transform="translate(1134.37 -178.98) rotate(90)"/>
  <rect class="cls-1" x="631.06" y="503.15" width="51.24" height="51.24" transform="translate(1185.45 -127.9) rotate(90)"/>
  <rect class="cls-1" x="579.99" y="554.23" width="51.24" height="51.24" transform="translate(1211.21 1159.69) rotate(180)"/>
  <rect class="cls-1" x="324.62" y="554.23" width="51.24" height="51.24" transform="translate(700.48 1159.69) rotate(180)"/>
  <rect class="cls-1" x="324.62" y="298.86" width="51.24" height="51.24" transform="translate(700.48 648.96) rotate(180)"/>
  <rect class="cls-1" x="579.99" y="298.86" width="51.24" height="51.24" transform="translate(1211.21 648.96) rotate(180)"/>
</svg>